<?xml version="1.0" encoding="utf-8"?>
<!-- Generator: Adobe Illustrator 23.0.1, SVG Export Plug-In . SVG Version: 6.00 Build 0)  -->
<svg version="1.1" id="Layer_1" xmlns="http://www.w3.org/2000/svg" xmlns:xlink="http://www.w3.org/1999/xlink" x="0px" y="0px"
	 viewBox="0 0 204 52" style="enable-background:new 0 0 204 52;" xml:space="preserve">
<style type="text/css">
	.st0{fill-rule:evenodd;clip-rule:evenodd;fill:#FFFFFF;}
	.st1{fill-rule:evenodd;clip-rule:evenodd;fill:#FACD3C;}
</style>
<g>
	<path class="st0" d="M13,14c12.7,0.2,24,1.6,33,5.2c0,0.1-0.2,0.2-0.2,0.3c-0.7,0.5-1.6,1-2.3,1.5c-8.4-3.2-18.7-4.6-30.5-4.8v-2.1
		C13,14.1,13,14,13,14 M47,25.6c-0.9,0.5-1.8,0.9-2.8,1.4c-5.8-3.4-13.4-5.2-22.2-5.9c0.3-0.6,0.6-1.5,1-2c0,0,0-0.2,0.1-0.1
		c4.6,0.5,9,1.2,13,2.3C40.2,22.4,43.9,23.7,47,25.6 M12.1,23c8.5,0.3,16.4,1.2,22.9,3.5c0,0.1-0.1,0.2-0.2,0.2
		c-0.6,0.4-1.3,0.9-1.9,1.3c-5.8-2.2-13.3-2.7-20.9-3.1c0-0.6,0.1-1.2,0.1-1.8C12.1,23.1,12.1,23,12.1,23 M19.9,27
		c3.1,0.4,6.2,0.9,9.1,1.5c2.9,0.6,5.7,1.2,7.9,2.4c-0.8,0.4-1.6,0.7-2.4,1.1c-4.4-1.8-9.7-2.8-15.6-3.4C19.3,28,19.6,27.5,19.9,27
		 M27,31.8c-0.5,0.4-1,0.8-1.6,1.2c-1.8-0.7-3.9-1-6.2-1.2c-2.3-0.2-4.7-0.3-7.2-0.4c0-0.4-0.1-1,0-1.3C17.5,30.2,22.8,30.6,27,31.8
		 M26,35.3c-0.6,0.2-1.1,0.5-1.7,0.7c-2.4-1-5.4-1.3-8.3-1.8c0.2-0.4,0.4-0.9,0.7-1.2c3,0.3,6,0.8,8.4,1.8
		C25.4,34.9,25.8,35,26,35.3 M21,36.9c-0.4,0.4-0.8,0.8-1.3,1.1c-1.9-0.6-4.3-0.8-6.7-0.8V36C16.1,35.9,18.6,36.3,21,36.9 M19,40
		c-0.4,0.4-1,0.6-1.4,1c-1-0.5-2.4-0.6-3.6-0.9c0.2-0.4,0.3-0.8,0.5-1.1C16.3,39,17.8,39.3,19,40"/>
	<path class="st1" d="M25,49C12.8,48.4,3,38.3,3,26C3,13.7,12.8,3.6,25,3V0C11.1,0.7,0,12.1,0,26s11.1,25.3,25,26V49 M27,0v3
		c12.2,0.6,22,10.7,22,23s-9.8,22.4-22,23v3c13.9-0.7,25-12.1,25-26S40.9,0.7,27,0"/>
	<path class="st0" d="M68.5,32c-1.3,0-2.4-0.4-3.3-1.2C64,29.7,64,28.5,64,26s0-3.7,1.2-4.8c0.9-0.8,2-1.2,3.3-1.2
		c2.3,0,4,1.3,4.5,3.5h-1.4c-0.3-1.4-1.5-2.4-3.1-2.4c-0.9,0-1.7,0.3-2.2,0.8c-0.8,0.8-0.9,1.6-0.9,4c0,2.5,0.1,3.3,0.9,4
		c0.6,0.5,1.4,0.8,2.2,0.8c1.6,0,2.8-0.9,3.1-2.4H73C72.6,30.7,70.8,32,68.5,32 M83.2,27v5h-1.4v-5L78,20h1.5l3,5.7l3-5.7H87
		L83.2,27 M98.4,26.5h-3.2v4.4h3.2c1.4,0,2.3-0.9,2.3-2.2C100.8,27.3,99.9,26.5,98.4,26.5L98.4,26.5z M98.3,21.1h-3v4.2h3
		c1.3,0,2.3-0.7,2.3-2.1S99.6,21.1,98.3,21.1L98.3,21.1z M98.5,32H94V20h4.4c2,0,3.4,1.2,3.4,3.2c0,1.3-0.7,2.3-1.7,2.6
		c1.1,0.4,1.9,1.4,1.9,2.8C102,30.9,100.6,32,98.5,32z M109,32V20h8v1.1h-6.6v4.2h5.6v1.1h-5.6v4.3h6.6V32H109 M129.8,21.1h-3.4v4.4
		h3.4c1.5,0,2.6-0.7,2.6-2.2C132.4,21.9,131.3,21.1,129.8,21.1z M132.4,32l-2.9-5.3h-3.1V32H125V20h4.9c2.2,0,3.8,1.3,3.8,3.3
		c0,1.8-1.1,2.9-2.8,3.2L134,32H132.4z M147.6,32v-5h-4.2v5H141V20h2.4v4.9h4.2V20h2.4v12H147.6 M161.6,23.5l-1.6,4.4h3.1
		L161.6,23.5L161.6,23.5z M164.5,32l-0.7-2.1h-4.4l-0.8,2.1H156l4.5-12h1.9l4.6,12H164.5z M184.5,32h-2.1l-2.4-7.3l-2.4,7.3h-2.1
		L172,20h2.7l2,7.6L179,20h1.9l2.4,7.6l2-7.6h2.7L184.5,32 M201.2,32l-3.2-5.5l-1.6,1.9V32H194V20h2.4v5.2l4.4-5.2h2.9l-4.1,4.8
		L204,32H201.2"/>
</g>
</svg>
