<svg xmlns="http://www.w3.org/2000/svg" width="204" height="52" viewBox="0 0 204 52"><g fill="none" fill-rule="evenodd"><path fill="#000" d="M13.04 14c12.686.176 23.975 1.637 32.957 5.223.03.126-.157.197-.236.254-.685.494-1.567 1.02-2.284 1.523-8.396-3.22-18.738-4.645-30.475-4.787V14.11c-.004-.05-.007-.102.039-.109M47 25.597c-.864.525-1.847.942-2.782 1.403-5.82-3.442-13.436-5.214-22.218-5.906.318-.65.628-1.454.994-1.993.022-.033 0-.155.08-.073 4.598.48 9.004 1.244 13.036 2.288 4.042 1.046 7.776 2.346 10.89 4.281M12.118 23c8.513.287 16.375 1.21 22.873 3.462.046.096-.101.187-.159.23-.56.433-1.342.858-1.932 1.308-5.76-2.202-13.265-2.703-20.9-3.077.018-.61.06-1.198.078-1.807-.003-.055-.006-.11.04-.116m7.789 4c3.082.412 6.22.877 9.144 1.468 2.918.591 5.723 1.232 7.949 2.448-.758.394-1.614.704-2.388 1.084C30.2 30.195 24.869 29.174 19 28.609c.266-.566.57-1.103.907-1.609M27 31.827c-.471.447-1.043.81-1.612 1.173-1.753-.712-3.916-1.014-6.207-1.242-2.283-.226-4.747-.332-7.174-.414.027-.437-.054-.965.04-1.344 5.458.204 10.713.581 14.953 1.827m-1 3.432c-.593.212-1.12.486-1.667.741-2.356-.991-5.389-1.335-8.333-1.764.206-.428.4-.867.667-1.236 3.015.35 6.004.781 8.407 1.766.328.133.695.225.926.493m-5 1.599c-.35.446-.825.776-1.261 1.142-1.913-.593-4.292-.752-6.739-.846v-1.14c3.063-.09 5.63.287 8 .844M19 40c-.392.411-.957.628-1.384 1-1.03-.488-2.353-.644-3.616-.87.189-.367.31-.81.539-1.13 1.75.035 3.297.303 4.461 1"/><path fill="#FACD3C" d="M25 49.015C12.762 48.365 3.006 38.291 3.006 26 3.006 13.708 12.762 3.636 25 2.985V0C11.103.653 0 12.065 0 26s11.103 25.347 25 26v-2.985M27 0v2.985C39.238 3.633 48.994 13.707 48.994 26c0 12.293-9.756 22.367-21.994 23.015V52c13.896-.652 25-12.064 25-26S40.896.652 27 0"/><path fill="#000" d="M68.518 32c-1.27 0-2.431-.431-3.302-1.227C64 29.663 64 28.503 64 26c0-2.503 0-3.663 1.216-4.773.87-.795 2.032-1.227 3.302-1.227 2.323 0 4.047 1.293 4.482 3.514h-1.415c-.345-1.442-1.452-2.386-3.067-2.386-.852 0-1.669.298-2.232.829-.816.761-.907 1.574-.907 4.043 0 2.47.091 3.282.907 4.044.563.53 1.38.828 2.232.828 1.615 0 2.759-.943 3.103-2.386H73C72.582 30.707 70.823 32 68.518 32m14.687-4.955V32H81.83v-4.955L78 20h1.481l3.037 5.747 3-5.747H87l-3.795 7.045m15.212-.59h-3.174v4.398h3.174c1.44 0 2.34-.858 2.34-2.207 0-1.348-.9-2.19-2.34-2.19zm-.13-5.31h-3.044v4.164h3.044c1.292 0 2.29-.657 2.29-2.09 0-1.433-.998-2.073-2.29-2.073zM98.532 32H94V20h4.385c2.028 0 3.436 1.197 3.436 3.202 0 1.264-.737 2.258-1.719 2.63 1.113.42 1.898 1.415 1.898 2.848 0 2.173-1.406 3.32-3.468 3.32zM109 32V20h8v1.146h-6.626v4.23h5.648v1.146h-5.648v4.331H117V32h-8m20.807-10.854h-3.434v4.399h3.434c1.5 0 2.566-.725 2.566-2.192 0-1.465-1.066-2.207-2.566-2.207zM132.392 32l-2.928-5.327h-3.09V32H125V20h4.933c2.242 0 3.814 1.264 3.814 3.337 0 1.753-1.139 2.9-2.801 3.22L134 32h-1.608zm15.198 0v-5.022h-4.18V32H141V20h2.41v4.904h4.18V20H150v12h-2.41m13.962-8.46l-1.576 4.364h3.1l-1.524-4.365zM164.46 32l-.735-2.124h-4.432L158.54 32H156l4.537-12h1.908L167 32h-2.54zm20.047 0h-2.121l-2.396-7.281L177.596 32h-2.122L172 20h2.651l2.011 7.567L179.04 20h1.901l2.377 7.567 2.03-7.567H188l-3.493 12m16.681 0l-3.178-5.461-1.597 1.855V32H194V20h2.413v5.225L200.77 20h2.934l-4.097 4.77L204 32h-2.812"/></g></svg>